/* XPM */
static char *result[] = {
/* columns rows colors chars-per-pixel */
"40 40 6 1 ",
"  c black",
". c #00582B",
"X c #08693F",
"o c #5BB9FF",
"O c #FB9780",
"+ c white",
/* pixels */
"........................................",
"........................................",
"........................................",
"........................................",
".X.X.X.X.X.X.X.X.X.X.X.X.X.X.X.X.X.X.X.X",
".X.X.X.X.X.X.X.X.X.X.X.X.X.X.X.X.X.X.X.X",
"XXXXXXXXXXXXXXXXXXXXXXXXXXXXXXXXXXXXXXXX",
"XXXXXXXXXXXXXXXXXXXXXXXXXXXXXXXXXXXXXXXX",
"XXXXXXXXXXXXXXXXXXXXXXXXXXXXXXXXXXXXXXXX",
"XXXXXXXXXXXX  XXXXX     XXXXXXXXXXXXXXXX",
"XXXXXXXXXXX oo XX  +++++  XXXXXXXXXXXXXX",
"XXXXXXXXXXX oo   +++++++++ XXXXXXXXXXXXX",
"XXXXXXXXXXXX  X ++++++OOOOO XXXXXXXXXXXX",
"XXXXXXXXXXXXXXX +++++OOO OO XXXXXXXXXXXX",
"XXXXXXXXXXXXXXX +++++OOO OO XXXXXXXXXXXX",
"XXXXXXXXXXXXXXX +++++OOO OO XXXXXXXXXXXX",
"XXXXXXXXXXXXXXX ++++++OOOOO XXXXXXXXXXXX",
"XXXXXXXXXXXXXXXX ++++ +++  XXXXXXXXXXXXX",
"XXXXXXXXXXXXXXXXX    +    XXXXXXXXXXXXXX",
"XXXXXXXXXXXXXXXXX o +++ oo XXXXXXXXXXXXX",
"XXXXXXXXXXXXXXXXX o +++ oo XXXXXXXXXXXXX",
"XXXXXXXXXXXXXXXXX   ooo ++ XXXXXXXXXXXXX",
"XXXXXXXXXXXXXXXXX o ooo oo XXXXXXXXXXXXX",
"XXXXXXXXXXXXXXXXXX        XXXXXXXXXXXXXX",
"XXXXXXXXXXXXXXXXXX +++++ XXXXXXXXXXXXXXX",
"XXXXXXXXXXXXXXXXXX       XXXXXXXXXXXXXXX",
"XXXXXXXXXXXXXXX   ooooooo   XXXXXXXXXXXX",
"XXXXXXXXXXXXXX               XXXXXXXXXXX",
"XXXXXXXXXXXXXX               XXXXXXXXXXX",
"XXXXXXXXXXXXXXX             XXXXXXXXXXXX",
"XXXXXXXXXXXXXXXXXXXXXXXXXXXXXXXXXXXXXXXX",
"XXXXXXXXXXXXXXXXXXXXXXXXXXXXXXXXXXXXXXXX",
"XXXXXXXXXXXXXXXXXXXXXXXXXXXXXXXXXXXXXXXX",
"XXXXXXXXXXXXXXXXXXXXXXXXXXXXXXXXXXXXXXXX",
"XXXXXXXXXXXXXXXXXXXXXXXXXXXXXXXXXXXXXXXX",
"XXXXXXXXXXXXXXXXXXXXXXXXXXXXXXXXXXXXXXXX",
"XXXXXXXXXXXXXXXXXXXXXXXXXXXXXXXXXXXXXXXX",
"XXXXXXXXXXXXXXXXXXXXXXXXXXXXXXXXXXXXXXXX",
"XXXXXXXXXXXXXXXXXXXXXXXXXXXXXXXXXXXXXXXX",
"XXXXXXXXXXXXXXXXXXXXXXXXXXXXXXXXXXXXXXXX"
};
