/* XPM */
static char *result[] = {
/* columns rows colors chars-per-pixel */
"40 40 6 1 ",
"  c black",
". c #00582B",
"X c #08693F",
"o c #5BB9FF",
"O c #FB9780",
"+ c white",
/* pixels */
"........................................",
"........................................",
"........................................",
"........................................",
".X.X.X.X.X.X.X.X.X.X.X.X.X.X.X.X.X.X.X.X",
".X.X.X.X.X.X.X.X.X.X.X.X.X.X.X.X.X.X.X.X",
"XXXXXXXXXXXXXXXXXXXXXXXXXXXXXXXXXXXXXXXX",
"XXXXXXXXXXXXXXXXXXXXXXXXXXXXXXXXXXXXXXXX",
"XXXXXXXXXXXXXXXXXXXXXXXXXXXXXXXXXXXXXXXX",
"XXXXXXXXXXXXXXXXXXXXXXXXXXXXXXXXXXXXXXXX",
"XXXXXXXXXXXXXXXXX     XXXXXXXXXXXXXXXXXX",
"XXXXXXXXXXXXXXX  +++++  XXXXXXXXXXXXXXXX",
"XXXXXXXXXXXXXX +++++++++ XXXXXXXXXXXXXXX",
"XXXXXXXXXXXXX ++OOOOOOO++ XXXXXXXXXXXXXX",
"XXXXXXXXXXXXX +OO OOO OO+ XXXXXXXXXXXXXX",
"XXXXXXXXXXXXX +OO OOO OO+ XXXXXXXXXXXXXX",
"XXXXXXXXXXXXX +OO OOO OO+ XXXXXXXXXXXXXX",
"XXXXXXXXXXXXX ++OOOOOOO++ XXXXXXXXXXXXXX",
"XXXXXXXXXXXXXX +++++++++ XXXXXXXXXXXXXXX",
"XXXXXXXXXXXXX +         + XXXXXXXXXXXXXX",
"XXXXXXXXXXXX ++ ooooooo ++ XXXXXXXXXXXXX",
"XXXXXXXXXXX o  ooooooooo  o XXXXXXXXXXXX",
"XXXXXXXXXXX oo    +++    oo XXXXXXXXXXXX",
"XXXXXXXXXXXX   ooooooooo   XXXXXXXXXXXXX",
"XXXXXXXXXXXXXX +ooooooo+ XXXXXXXXXXXXXXX",
"XXXXXXXXXXXXXX +++   +++ XXXXXXXXXXXXXXX",
"XXXXXXXXXXXXXX           XXXXXXXXXXXXXXX",
"XXXXXXXXXXXXX  ooo   ooo  XXXXXXXXXXXXXX",
"XXXXXXXXXXXX               XXXXXXXXXXXXX",
"XXXXXXXXXXXXX             XXXXXXXXXXXXXX",
"XXXXXXXXXXXXXXXXXXXXXXXXXXXXXXXXXXXXXXXX",
"XXXXXXXXXXXXXXXXXXXXXXXXXXXXXXXXXXXXXXXX",
"XXXXXXXXXXXXXXXXXXXXXXXXXXXXXXXXXXXXXXXX",
"XXXXXXXXXXXXXXXXXXXXXXXXXXXXXXXXXXXXXXXX",
"XXXXXXXXXXXXXXXXXXXXXXXXXXXXXXXXXXXXXXXX",
"XXXXXXXXXXXXXXXXXXXXXXXXXXXXXXXXXXXXXXXX",
"XXXXXXXXXXXXXXXXXXXXXXXXXXXXXXXXXXXXXXXX",
"XXXXXXXXXXXXXXXXXXXXXXXXXXXXXXXXXXXXXXXX",
"XXXXXXXXXXXXXXXXXXXXXXXXXXXXXXXXXXXXXXXX",
"XXXXXXXXXXXXXXXXXXXXXXXXXXXXXXXXXXXXXXXX"
};
