/* XPM */
static char *result[] = {
/* columns rows colors chars-per-pixel */
"40 40 6 1 ",
"  c black",
". c #00582B",
"X c #08693F",
"o c #5BB9FF",
"O c #FB9780",
"+ c white",
/* pixels */
"........................................",
"........................................",
"........................................",
"........................................",
".X.X.X.X.X.X.X.X.X.X.X.X.X.X.X.X.X.X.X.X",
".X.X.X.X.X.X.X.X.X.X.X.X.X.X.X.X.X.X.X.X",
"XXXXXXXXXXXXXXXXXXXXXXXXXXXXXXXXXXXXXXXX",
"XXXXXXXXXXXXXXXXXXXXXXXXXXXXXXXXXXXXXXXX",
"XXXXXXXXXXXXXXXXXXXXXXXXXXXXXXXXXXXXXXXX",
"XXXXXXXXXXXXXXXXXXXXXXXXXXXXXXXXXXXXXXXX",
"XXXXXXXXXXXXXXXX     XXXXX  XXXXXXXXXXXX",
"XXXXXXXXXXXXXX  +++++  XX oo XXXXXXXXXXX",
"XXXXXXXXXXXXX +++++++++   oo XXXXXXXXXXX",
"XXXXXXXXXXXX OOOOO++++++ X  XXXXXXXXXXXX",
"XXXXXXXXXXXX OO OOO+++++ XXXXXXXXXXXXXXX",
"XXXXXXXXXXXX OO OOO+++++ XXXXXXXXXXXXXXX",
"XXXXXXXXXXXX OO OOO+++++ XXXXXXXXXXXXXXX",
"XXXXXXXXXXXX OOOOO++++++ XXXXXXXXXXXXXXX",
"XXXXXXXXXXXXX  +++ ++++ XXXXXXXXXXXXXXXX",
"XXXXXXXXXXXXXX    +    XXXXXXXXXXXXXXXXX",
"XXXXXXXXXXXXX oo +++ o XXXXXXXXXXXXXXXXX",
"XXXXXXXXXXXXX oo +++ o XXXXXXXXXXXXXXXXX",
"XXXXXXXXXXXXX ++ ooo   XXXXXXXXXXXXXXXXX",
"XXXXXXXXXXXXX oo ooo o XXXXXXXXXXXXXXXXX",
"XXXXXXXXXXXXXX        XXXXXXXXXXXXXXXXXX",
"XXXXXXXXXXXXXXX +++++ XXXXXXXXXXXXXXXXXX",
"XXXXXXXXXXXXXXX       XXXXXXXXXXXXXXXXXX",
"XXXXXXXXXXXX   ooooooo   XXXXXXXXXXXXXXX",
"XXXXXXXXXXX               XXXXXXXXXXXXXX",
"XXXXXXXXXXXX             XXXXXXXXXXXXXXX",
"XXXXXXXXXXXXXXXXXXXXXXXXXXXXXXXXXXXXXXXX",
"XXXXXXXXXXXXXXXXXXXXXXXXXXXXXXXXXXXXXXXX",
"XXXXXXXXXXXXXXXXXXXXXXXXXXXXXXXXXXXXXXXX",
"XXXXXXXXXXXXXXXXXXXXXXXXXXXXXXXXXXXXXXXX",
"XXXXXXXXXXXXXXXXXXXXXXXXXXXXXXXXXXXXXXXX",
"XXXXXXXXXXXXXXXXXXXXXXXXXXXXXXXXXXXXXXXX",
"XXXXXXXXXXXXXXXXXXXXXXXXXXXXXXXXXXXXXXXX",
"XXXXXXXXXXXXXXXXXXXXXXXXXXXXXXXXXXXXXXXX",
"XXXXXXXXXXXXXXXXXXXXXXXXXXXXXXXXXXXXXXXX",
"XXXXXXXXXXXXXXXXXXXXXXXXXXXXXXXXXXXXXXXX"
};
