/* XPM */
static char *result[] = {
/* columns rows colors chars-per-pixel */
"40 40 5 1 ",
"  c black",
". c #08693F",
"X c #5BB9FF",
"o c #FB9780",
"O c white",
/* pixels */
"........................................",
"........................................",
"........................................",
"........................................",
"........................................",
"........................................",
"........................................",
"........................................",
"........................................",
"........................................",
".................     ..................",
"...............  OOOOO  ................",
".............. OOOOOOOOO ...............",
"............. OOoooooooOO ..............",
"............. Ooo ooo ooO ..............",
"............. Ooo ooo ooO ..............",
"............. Ooo ooo ooO ..............",
"............. OOoooooooOO ..............",
".............. OOOOOOOOO ...............",
"............. O         O ..............",
"............ OO XXXXXXX OO .............",
"........... X  XXXXXXXXX  X ............",
"........... XX    OOO    XX ............",
"............   XXXXXXXXX   .............",
".............. OXXXXXXXO ...............",
".............. OOO   OOO ...............",
"..............           ...............",
".............  XXX   XXX  ..............",
"............               .............",
".............             ..............",
"........................................",
"........................................",
"........................................",
"........................................",
"........................................",
"........................................",
"........................................",
"........................................",
"........................................",
"........................................"
};
