/* XPM */
static char *result[] = {
/* columns rows colors chars-per-pixel */
"40 40 4 1 ",
"  c black",
". c #08693F",
"X c #5BB9FF",
"o c white",
/* pixels */
"........................................",
"........................................",
"........................................",
"........................................",
"........................................",
"........................................",
"........................................",
"........................................",
"........................................",
"........................................",
".................     ..................",
"...............  o X o  ................",
".............. ooo X ooo ...............",
"............. ooooo ooooo ..............",
"............. ooooooooooo ..............",
"............. ooooooooooo ..............",
"............. ooooooooooo ..............",
"............. ooooooooooo ..............",
".............. ooooooooo ...............",
"............. o         o ..............",
"............ oo XXXXXXX oo .............",
"............ o XXXXXXXXX o .............",
"........... X             X ............",
"........... XX XXXXXXXXX XX ............",
"............   ooXXXXXoo   .............",
".............. ooo   ooo ...............",
"..............           ...............",
".............  XXX   XXX  ..............",
"............               .............",
".............             ..............",
"........................................",
"........................................",
"........................................",
"........................................",
"........................................",
"........................................",
"........................................",
"........................................",
"........................................",
"........................................"
};
