/* XPM */
static char *result[] = {
/* columns rows colors chars-per-pixel */
"40 40 5 1 ",
"  c black",
". c #08693F",
"X c #5BB9FF",
"o c #FB9780",
"O c white",
/* pixels */
"........................................",
"........................................",
"........................................",
"........................................",
"........................................",
"........................................",
"........................................",
"........................................",
"........................................",
"........................................",
"................     .....  ............",
"..............  OOOOO  .. XX ...........",
"............. OOOOOOOOO   XX ...........",
"............ oooooOOOOOO .  ............",
"............ oo oooOOOOO ...............",
"............ oo oooOOOOO ...............",
"............ oo oooOOOOO ...............",
"............ oooooOOOOOO ...............",
".............  OOO OOOO ................",
"..............    O    .................",
"............. XX OOO X .................",
"............. XX OOO X .................",
"............. OO XXX   .................",
"............. XX XXX X .................",
"..............        ..................",
"............... OOOOO ..................",
"...............       ..................",
"............   XXXXXXX   ...............",
"...........               ..............",
"............             ...............",
"........................................",
"........................................",
"........................................",
"........................................",
"........................................",
"........................................",
"........................................",
"........................................",
"........................................",
"........................................"
};
