/* XPM */
static char *result[] = {
/* columns rows colors chars-per-pixel */
"40 40 5 1 ",
"  c black",
". c #00582B",
"X c #08693F",
"o c #5BB9FF",
"O c white",
/* pixels */
"........................................",
"........................................",
"........................................",
"........................................",
".X.X.X.X.X.X.X.X.X.X.X.X.X.X.X.X.X.X.X.X",
".X.X.X.X.X.X.X.X.X.X.X.X.X.X.X.X.X.X.X.X",
"XXXXXXXXXXXXXXXXXXXXXXXXXXXXXXXXXXXXXXXX",
"XXXXXXXXXXXXXXXXXXXXXXXXXXXXXXXXXXXXXXXX",
"XXXXXXXXXXXXXXXXXXXXXXXXXXXXXXXXXXXXXXXX",
"XXXXXXXXXXXXXXXXXXXXXXXXXXXXXXXXXXXXXXXX",
"XXXXXXXXXXXXXXXXX     XXXXXXXXXXXXXXXXXX",
"XXXXXXXXXXXXXXX  O o O  XXXXXXXXXXXXXXXX",
"XXXXXXXXXXXXXX OOO o OOO XXXXXXXXXXXXXXX",
"XXXXXXXXXXXXX OOOOO OOOOO XXXXXXXXXXXXXX",
"XXXXXXXXXXXXX OOOOOOOOOOO XXXXXXXXXXXXXX",
"XXXXXXXXXXXXX OOOOOOOOOOO XXXXXXXXXXXXXX",
"XXXXXXXXXXXXX OOOOOOOOOOO XXXXXXXXXXXXXX",
"XXXXXXXXXXXXX OOOOOOOOOOO XXXXXXXXXXXXXX",
"XXXXXXXXXXXXXX OOOOOOOOO XXXXXXXXXXXXXXX",
"XXXXXXXXXXXXX O         O XXXXXXXXXXXXXX",
"XXXXXXXXXXXX OO ooooooo OO XXXXXXXXXXXXX",
"XXXXXXXXXXXX O ooooooooo O XXXXXXXXXXXXX",
"XXXXXXXXXXX o             o XXXXXXXXXXXX",
"XXXXXXXXXXX oo ooooooooo oo XXXXXXXXXXXX",
"XXXXXXXXXXXX   OOoooooOO   XXXXXXXXXXXXX",
"XXXXXXXXXXXXXX OOO   OOO XXXXXXXXXXXXXXX",
"XXXXXXXXXXXXXX           XXXXXXXXXXXXXXX",
"XXXXXXXXXXXXX  ooo   ooo  XXXXXXXXXXXXXX",
"XXXXXXXXXXXX               XXXXXXXXXXXXX",
"XXXXXXXXXXXXX             XXXXXXXXXXXXXX",
"XXXXXXXXXXXXXXXXXXXXXXXXXXXXXXXXXXXXXXXX",
"XXXXXXXXXXXXXXXXXXXXXXXXXXXXXXXXXXXXXXXX",
"XXXXXXXXXXXXXXXXXXXXXXXXXXXXXXXXXXXXXXXX",
"XXXXXXXXXXXXXXXXXXXXXXXXXXXXXXXXXXXXXXXX",
"XXXXXXXXXXXXXXXXXXXXXXXXXXXXXXXXXXXXXXXX",
"XXXXXXXXXXXXXXXXXXXXXXXXXXXXXXXXXXXXXXXX",
"XXXXXXXXXXXXXXXXXXXXXXXXXXXXXXXXXXXXXXXX",
"XXXXXXXXXXXXXXXXXXXXXXXXXXXXXXXXXXXXXXXX",
"XXXXXXXXXXXXXXXXXXXXXXXXXXXXXXXXXXXXXXXX",
"XXXXXXXXXXXXXXXXXXXXXXXXXXXXXXXXXXXXXXXX"
};
