/* XPM */
static char *result[] = {
/* columns rows colors chars-per-pixel */
"40 40 7 1 ",
"  c black",
". c #00582B",
"X c #08693F",
"o c #5BB9FF",
"O c #FB9780",
"+ c white",
"@ c None",
/* pixels */
"........................................",
"........................................",
"........................................",
"........................................",
".X.X.X.X.X.X.X.X.X.X.X.X.X.X.X.X.X.X.X.X",
".X.X.X.X.X.X.X.X.X.X.X.X.X.X.X.X.X.X.X.X",
"XXXXXXXXXXXXXXXXXXXXXXXXXXXXXXXXXXXXXXXX",
"XXXXXXXXXXXXXXXXXXXXXXXXXXXXXXXXXXXXXXXX",
"XXXXXXXXXXXXXXXXXXXXXXXXXXXXXXXXXXXXXXXX",
"XXXXXXXXXXXXXXXXXXXXXXXXXXXXXXXXXXXXXXXX",
"XXXXXXXXXXXXXXXXX     XXXXXXXXXXXXXXXXXX",
"XXXXXXXXXXXXXXX  +++++  XXXXXXXXXXXXXXXX",
"XXXXXXXXXXXXXX +++++++++ XXXXXXXXXXXXXXX",
"XXXXXXXXXXXXX ++OOOOOOO++ XXXXXXXXXXXXXX",
"XXXXXXXXXXXXX +O O O O O+ XXXXXXXXXXXXXX",
"XXXXXXXXXXXXX +OO OOO OO+ XXXXXXXXXXXXXX",
"XXXXXXXXXX    +O O O O O+    XXXXXXXXXXX",
"XXXXXXXXX oo  ++OOOOOOO++  oo XXXXXXXXXX",
"XXXXXXXXX o ++ +++++++++ ++ o XXXXXXXXXX",
"XXXXXXXXXX ++++         ++++ XXXXXXXXXXX",
"XXXXXXXXXXX +++ ooooooo +++ XXXXXXXXXXXX",
"XXXXXXXXXXXX + ooooooooo + XXXXXXXXXXXXX",
"XXXXXXXXXXXXX     +++     XXXXXXXXXXXXXX",
"XXXXXXXXXXXXXX ooooooooo XXXXXXXXXXXXXXX",
"XXXXXXXXXXXXXX +ooooooo+ XXXXXXXXXXXXXXX",
"XXXXXXXXXXXXX ++++   ++++ XXXXXXXXXXXXXX",
"XXXXXXXXXXXX   ++ @@@ ++   XXXXXXXXXXXXX",
"XXXXXXXXXXXX  o         o  XXXXXXXXXXXXX",
"XXXXXXXXXXXX  oo       oo  XXXXXXXXXXXXX",
"XXXXXXXXXXXXX             XXXXXXXXXXXXXX",
"XXXXXXXXXXXXXXXXXXXXXXXXXXXXXXXXXXXXXXXX",
"XXXXXXXXXXXXXXXXXXXXXXXXXXXXXXXXXXXXXXXX",
"XXXXXXXXXXXXXXXXXXXXXXXXXXXXXXXXXXXXXXXX",
"XXXXXXXXXXXXXXXXXXXXXXXXXXXXXXXXXXXXXXXX",
"XXXXXXXXXXXXXXXXXXXXXXXXXXXXXXXXXXXXXXXX",
"XXXXXXXXXXXXXXXXXXXXXXXXXXXXXXXXXXXXXXXX",
"XXXXXXXXXXXXXXXXXXXXXXXXXXXXXXXXXXXXXXXX",
"XXXXXXXXXXXXXXXXXXXXXXXXXXXXXXXXXXXXXXXX",
"XXXXXXXXXXXXXXXXXXXXXXXXXXXXXXXXXXXXXXXX",
"XXXXXXXXXXXXXXXXXXXXXXXXXXXXXXXXXXXXXXXX"
};
