/* XPM */
static char *result[] = {
/* columns rows colors chars-per-pixel */
"40 40 6 1 ",
"  c black",
". c #08693F",
"X c #5BB9FF",
"o c #FB9780",
"O c white",
"+ c None",
/* pixels */
"........................................",
"........................................",
"........................................",
"........................................",
"........................................",
"........................................",
"........................................",
"........................................",
"........................................",
"........................................",
".................     ..................",
"...............  OOOOO  ................",
".............. OOOOOOOOO ...............",
"............. OOoooooooOO ..............",
"............. Oo o o o oO ..............",
"............. Ooo ooo ooO ..............",
"..........    Oo o o o oO    ...........",
"......... XX  OOoooooooOO  XX ..........",
"......... X OO OOOOOOOOO OO X ..........",
".......... OOOO         OOOO ...........",
"........... OOO XXXXXXX OOO ............",
"............ O XXXXXXXXX O .............",
".............     OOO     ..............",
".............. XXXXXXXXX ...............",
".............. OXXXXXXXO ...............",
"............. OOOO   OOOO ..............",
"............   OO +++ OO   .............",
"............  X         X  .............",
"............  XX       XX  .............",
".............             ..............",
"........................................",
"........................................",
"........................................",
"........................................",
"........................................",
"........................................",
"........................................",
"........................................",
"........................................",
"........................................"
};
