/* XPM */
static char *result[] = {
/* columns rows colors chars-per-pixel */
"40 40 5 1 ",
"  c black",
". c #08693F",
"X c #5BB9FF",
"o c #FB9780",
"O c white",
/* pixels */
"........................................",
"........................................",
"........................................",
"........................................",
"........................................",
"........................................",
"........................................",
"........................................",
"........................................",
"............  .....     ................",
"........... XX ..  OOOOO  ..............",
"........... XX   OOOOOOOOO .............",
"............  . OOOOOOooooo ............",
"............... OOOOOooo oo ............",
"............... OOOOOooo oo ............",
"............... OOOOOooo oo ............",
"............... OOOOOOooooo ............",
"................ OOOO OOO  .............",
".................    O    ..............",
"................. X OOO XX .............",
"................. X OOO XX .............",
".................   XXX OO .............",
"................. X XXX XX .............",
"..................        ..............",
".................. OOOOO ...............",
"..................       ...............",
"...............   XXXXXXX   ............",
"..............               ...........",
"..............               ...........",
"...............             ............",
"........................................",
"........................................",
"........................................",
"........................................",
"........................................",
"........................................",
"........................................",
"........................................",
"........................................",
"........................................"
};
