/* XPM */
static char *result[] = {
/* columns rows colors chars-per-pixel */
"40 40 5 1 ",
"  c black",
". c DimGray",
"X c #FB6700",
"o c #FEFEFE",
"O c None",
/* pixels */
"OOOOOOOOOOOOOOOOOOOOOOOOOOOOOOOOOOOOOOOO",
"OOOOOOOOOOOOOOOOOOOOOOOOOOOOOOOOOOOOOOOO",
"OOOOOOOOOOOOOOOOOOOOOOOOOOOOOOOOOOOOOOOO",
"OOOOOOOOOOOOOOOOOOOOOOOOOOOOOOOOOOOOOOOO",
"OOOOOOOOOOOOOOOOOOOOOOOOOOOOOOOOOOOOOOOO",
"OOOOOOOOOOOOOOOOOOOOOOOOOOOOOOOOOOOOOOOO",
"OOOOOOOOOOOOOOOOOOOOOOOOOOOOOOOOOOOOOOOO",
"OOOOOOOOOOOOOOOOOOOOOOOOOOOOOOOOOOOOOOOO",
"OOOOOOOOOOOOOOOOOOOOOOOOOOOOOOOOOOOOOOOO",
"OOOOOOOOOOOOOOOOOOOOOOOOOOOOOOOOOOOOOOOO",
"OOOOOOOOOOOOOOOOOOOOOOOOOOOOOOOOOOOOOOOO",
"OOOOOOOOOOOOOOOOOOOOOOOOOOOOOOOOOOOOOOOO",
"OOOOOOOOOOOOOOOOOOOOOOOOOXOOOOOOOOOOOOOO",
"OOOOOOOOOOOOOOOOO      OXoXOOOOOOOOOOOOO",
"OOOOOOOOOOOOOOO  ....oo .XOOOOOOOOOOOOOO",
"OOOOOOOOOOOOOO ...o o. .  OOOOOOOOOOOOOO",
"OOOOOOOOOOOOOO ..o. ... o OOOOOOOOOOOOOO",
"OOOOOOOOOOOOO .oo.. o...o  OOOOOOOOOOOOO",
"OOOOOOOOOOOOO oooo.. o.o   OOOOOOOOOOOOO",
"OOOOOOOOOOOOO oooo...      OOOOOOOOOOOOO",
"OOOOOOOOOOOOO .oo.....     OOOOOOOOOOOOO",
"OOOOOOOOOOOOO .......      OOOOOOOOOOOOO",
"OOOOOOOOOOOOO .......      OOOOOOOOOOOOO",
"OOOOOOOOOOOOOO  ....      OOOOOOOOOOOOOO",
"OOOOOOOOOOOOOO            OOOOOOOOOOOOOO",
"OOOOOOOOOOOOOOO          OOOOOOOOOOOOOOO",
"OOOOOOOOOOOOOOOOO      OOOOOOOOOOOOOOOOO",
"OOOOOOOOOOOOOOOOOOO  OOOOOOOOOOOOOOOOOOO",
"OOOOOOOOOOOOOOOOOOOOOOOOOOOOOOOOOOOOOOOO",
"OOOOOOOOOOOOOOOOOOOOOOOOOOOOOOOOOOOOOOOO",
"OOOOOOOOOOOOOOOOOOOOOOOOOOOOOOOOOOOOOOOO",
"OOOOOOOOOOOOOOOOOOOOOOOOOOOOOOOOOOOOOOOO",
"OOOOOOOOOOOOOOOOOOOOOOOOOOOOOOOOOOOOOOOO",
"OOOOOOOOOOOOOOOOOOOOOOOOOOOOOOOOOOOOOOOO",
"OOOOOOOOOOOOOOOOOOOOOOOOOOOOOOOOOOOOOOOO",
"OOOOOOOOOOOOOOOOOOOOOOOOOOOOOOOOOOOOOOOO",
"OOOOOOOOOOOOOOOOOOOOOOOOOOOOOOOOOOOOOOOO",
"OOOOOOOOOOOOOOOOOOOOOOOOOOOOOOOOOOOOOOOO",
"OOOOOOOOOOOOOOOOOOOOOOOOOOOOOOOOOOOOOOOO",
"OOOOOOOOOOOOOOOOOOOOOOOOOOOOOOOOOOOOOOOO"
};
