/* XPM */
static char *result[] = {
/* columns rows colors chars-per-pixel */
"40 40 5 1 ",
"  c DimGray",
". c #AA2925",
"X c #FB6700",
"o c #FEFEFE",
"O c None",
/* pixels */
"OOOOOOOOOOOOOOOOOOOOOOOOOOOOOOOOOOOOOOOO",
"OOOOOOOOOOOOOOOOOOOOOOOOOOOOOOOOOOOOOOOO",
"OOOOOOOOOOOOOOOOOOOOOOOOOOOOOOOOOOOOOOOO",
"OOOOOOOOOOOOOOOOOOOOOOOOOOOOOOOOOOOOOOOO",
"OOOOOOOOOOOOOOOOOOOOOOOOOOOOOOOOOOOOOOOO",
"OOOOOOOOOOOOOOOOOOOOOOOOOOOOOOOOOOOOOOOO",
"OOOOOOOOOOOOOOOOOOOOOOOOOOOOOOOOOOOOOOOO",
"OOOOOOOOOOOOOOOOOOOOOOOOOOOOOOOOOOOOOOOO",
"OOOOOOOOOOOOOOOOOOOOOOOOOOOOOOOOOOOOOOOO",
"OOOOOOOOOOOOOOOOOOOOOOOOOOOOOOOOOOOOOOOO",
"OOOOOOOOOOOOOOOOOOOOOOOOOOOOOOOOOOOOOOOO",
"OOOOOOOOOOOOOOOOOOOOOOOOOOXOOOOOOOOOOOOO",
"OOOOOOOOOOOOOOOOO.......OXoXOOOOOOOOOOOO",
"OOOOOOOOOOOOOOO..    .oo. XOOOOOOOOOOOOO",
"OOOOOOOOOOOOOO.    o.o . ..OOOOOOOOOOOOO",
"OOOOOOOOOOOOO.    o .   .o.OOOOOOOOOOOOO",
"OOOOOOOOOOOOO. ooo  .o   o.OOOOOOOOOOOOO",
"OOOOOOOOOOOO. ooooo  .o o...OOOOOOOOOOOO",
"OOOOOOOOOOOO. ooooo   ......OOOOOOOOOOOO",
"OOOOOOOOOOOO.  ooo    ......OOOOOOOOOOOO",
"OOOOOOOOOOOO.          .....OOOOOOOOOOOO",
"OOOOOOOOOOOO.         ......OOOOOOOOOOOO",
"OOOOOOOOOOOO..        ......OOOOOOOOOOOO",
"OOOOOOOOOOOOO..      ......OOOOOOOOOOOOO",
"OOOOOOOOOOOOO...    .......OOOOOOOOOOOOO",
"OOOOOOOOOOOOOO............OOOOOOOOOOOOOO",
"OOOOOOOOOOOOOOO..........OOOOOOOOOOOOOOO",
"OOOOOOOOOOOOOOOOO......OOOOOOOOOOOOOOOOO",
"OOOOOOOOOOOOOOOOOOOOOOOOOOOOOOOOOOOOOOOO",
"OOOOOOOOOOOOOOOOOOOOOOOOOOOOOOOOOOOOOOOO",
"OOOOOOOOOOOOOOOOOOOOOOOOOOOOOOOOOOOOOOOO",
"OOOOOOOOOOOOOOOOOOOOOOOOOOOOOOOOOOOOOOOO",
"OOOOOOOOOOOOOOOOOOOOOOOOOOOOOOOOOOOOOOOO",
"OOOOOOOOOOOOOOOOOOOOOOOOOOOOOOOOOOOOOOOO",
"OOOOOOOOOOOOOOOOOOOOOOOOOOOOOOOOOOOOOOOO",
"OOOOOOOOOOOOOOOOOOOOOOOOOOOOOOOOOOOOOOOO",
"OOOOOOOOOOOOOOOOOOOOOOOOOOOOOOOOOOOOOOOO",
"OOOOOOOOOOOOOOOOOOOOOOOOOOOOOOOOOOOOOOOO",
"OOOOOOOOOOOOOOOOOOOOOOOOOOOOOOOOOOOOOOOO",
"OOOOOOOOOOOOOOOOOOOOOOOOOOOOOOOOOOOOOOOO"
};
