/* XPM */
static char *result[] = {
/* columns rows colors chars-per-pixel */
"40 40 7 1 ",
"  c #00582B",
". c #08693F",
"X c #6C0040",
"o c #D97200",
"O c #E37700",
"+ c #FEE98B",
"@ c #FFF3BB",
/* pixels */
"........................................",
"........................................",
"........................................",
"........................................",
"........................................",
"........................................",
"........................................",
"........................................",
"........................................",
"........................................",
"........................................",
"........................................",
"........................................",
"...................X..X..X..............",
"..................X@XX@XX@X.............",
"................XX+OX+OX+OX.............",
"...............XO@+++++++OX.............",
"..............XO@+++@++++OX.............",
".............XO@+X@+X@++OOX.............",
".............X+++X@+X@++OOX.............",
".............X+++X++X@+OOoX.............",
".............X++@++++++OOoX.............",
".............X++XXXXXXOOoX..............",
".............XO++XooXOOOoX..............",
"..............XOOOXXOOooX...............",
"...............XXOOOooXX................",
"..............  XXXXXX    ..............",
".............              .............",
".............              .............",
"..............            ..............",
"........................................",
"........................................",
"........................................",
"........................................",
"........................................",
"........................................",
"........................................",
"........................................",
"........................................",
"........................................"
};
