/* XPM */
static char *_5d0707132cb4f7db83110738927c3f4byf5eg1aKsEsv9JA[] = {
/* columns rows colors chars-per-pixel */
"40 40 2 1 ",
"  c black",
". c #1058D9",
/* pixels */
"                                        ",
"  ....................................  ",
" . .................................. . ",
" .. ................................ .. ",
" ... .............................. ... ",
" .... ............................ .... ",
" ..... .......................... ..... ",
" ...... ........................ ...... ",
" ....... ...................... ....... ",
" ........ .................... ........ ",
" ......... .................. ......... ",
" .......... ................ .......... ",
" ........... .............. ........... ",
" ............ ............ ............ ",
" ............. .......... ............. ",
" .............. ........ .............. ",
" ............... ...... ............... ",
" ................ .... ................ ",
" ................. .. ................. ",
" ..................  .................. ",
" ..................  .................. ",
" ................. .. ................. ",
" ................ .... ................ ",
" ............... ...... ............... ",
" .............. ........ .............. ",
" ............. .......... ............. ",
" ............ ............ ............ ",
" ........... .............. ........... ",
" .......... ................ .......... ",
" ......... .................. ......... ",
" ........ .................... ........ ",
" ....... ...................... ....... ",
" ...... ........................ ...... ",
" ..... .......................... ..... ",
" .... ............................ .... ",
" ... .............................. ... ",
" .. ................................ .. ",
" . .................................. . ",
"  ....................................  ",
"                                        "
};
