/* XPM */
static char *result[] = {
/* columns rows colors chars-per-pixel */
"40 40 5 1 ",
"  c #2D2D2D",
". c #0B693F",
"X c #535353",
"o c gray45",
"O c #A4A4A4",
/* pixels */
"OOOOOOOOOOOOOOOOOOOOOOOOOOO   OOOOOOOOOO",
"OOOOOOOOOOOOOOOOOOOOOOOOOOOO XoOOOOOOOOO",
"oooooooooooooooooooooooooOOO Xoooooooooo",
"ooooooooooooooooooooooooooOO Xoooooooooo",
"ooooooooooooooooooooooooooOO Xoooooooooo",
"ooooooooooooooooooooooooooOO Xoooooooooo",
"ooooooooooooooooooooooooooOO Xoooooooooo",
"ooooooooooooooooooooooooooOO Xoooooooooo",
"ooooooooooooooooooooooooooOO Xoooooooooo",
"oooooooooooooooooooooooooooO Xoooooooooo",
"XXXXXXXXXXXXXXXXXXXXXXXXXXX   XXXXXXXXXX",
"                                        ",
"OOOOOOOOOOOO   OOOOOOOOOOOOOOOOOOOOOOOOO",
"OOOOOOOOOOOOO XoOOOOOOOOOOOOOOOOOOOOOOOO",
"ooooooooooOOO Xooooooooooooooooooooooooo",
"oooooooooooOO Xooooooooooooooooooooooooo",
"oooooooooooOO Xooooooooooooooooooooooooo",
"oooooooooooOO Xooooooooooooooooooooooooo",
"oooooooooooOO Xooooooooooooooooooooooooo",
"oooooooooooOO Xooooooooooooooooooooooooo",
"oooooooooooOO Xooooooooooooooooooooooooo",
"oooooooooooOO Xooooooooooooooooooooooooo",
"oooooooooooOO Xooooooooooooooooooooooooo",
"ooooooooooooO Xooooooooooooooooooooooooo",
"XXXXXXXXXXXX   XXXXXXXXXXXXXXXXXXXXXXXXX",
"                                        ",
"OOOOOOOOOOOOOOOOOOOOOOOOOOO   OOOOOOOOOO",
"OOOOOOOOOOOOOOOOOOOOOOOOOOOO XoOOOOOOOOO",
"oooooooooooooooooooooooooOOO Xoooooooooo",
"ooooooooooooooooooooooooooOO Xoooooooooo",
"ooooooooooooooooooooooooooOO Xoooooooooo",
"ooooooooooooooooooooooooooOO Xoooooooooo",
"ooooooooooooooooooooooooooOO Xoooooooooo",
"ooooooooooooooooooooooooooOO Xoooooooooo",
"ooooooooooooooooooooooooooOO Xoooooooooo",
"oooooooooooooooooooooooooooO Xoooooooooo",
"XXXXXXXXXXXXXXXXXXXXXXXXXXX   XXXXXXXXXX",
"                                        ",
"                            .           ",
"                           ...          "
};
