/* XPM */
static char *result[] = {
/* columns rows colors chars-per-pixel */
"40 40 6 1 ",
"  c gray49",
". c #BBBBBB",
"X c #C6C6C6",
"o c #CDCDCD",
"O c #D3D1D1",
"+ c #E4E4E4",
/* pixels */
" . . . . . . . . . . . . . . . . . . . .",
".+.+.+.+.+.+.+.+.+.+.+.+.+.+.+.+.+.+.+. ",
" .OOOOOOOOOOOOOOOOOOOOOOOOOOOOOOOOOOOO+.",
".+OooooooooooooooooooooooooooooooooooO. ",
" .OoXXXXXXXXXXXXXXXXXXXXXXXXXXXXXXXXoO+.",
".+OoXXXXXXXXXXXXXXXXXXXXXXXXXXXXXXXXoO. ",
" .OoXXXXXXXXXXXXXXXXXXXXXXXXXXXXXXXXoO+.",
".+OoXXXXXXXXXXXXXXXXXXXXXXXXXXXXXXXXoO. ",
" .OoXXXXXXXXXXXXXXXXXXXXXXXXXXXXXXXXoO+.",
".+OoXXXXXXXXXXXXXXXXXXXXXXXXXXXXXXXXoO. ",
" .OoXXXXXXXXXXXXXXXXXXXXXXXXXXXXXXXXoO+.",
".+OoXXXXXXXXXXXXXXXXXXXXXXXXXXXXXXXXoO. ",
" .OoXXXXXXXXXXXXXXXXXXXXXXXXXXXXXXXXoO+.",
".+OoXXXXXXXXXXXXXXXXXXXXXXXXXXXXXXXXoO. ",
" .OoXXXXXXXXXXXXXXXXXXXXXXXXXXXXXXXXoO+.",
".+OoXXXXXXXXXXXXXXXXXXXXXXXXXXXXXXXXoO. ",
" .OoXXXXXXXXXXXXXXXXXXXXXXXXXXXXXXXXoO+.",
".+OoXXXXXXXXXXXXXXXXXXXXXXXXXXXXXXXXoO. ",
" .OoXXXXXXXXXXXXXXXXXXXXXXXXXXXXXXXXoO+.",
".+OoXXXXXXXXXXXXXXXXXXXXXXXXXXXXXXXXoO. ",
" .OoXXXXXXXXXXXXXXXXXXXXXXXXXXXXXXXXoO+.",
".+OoXXXXXXXXXXXXXXXXXXXXXXXXXXXXXXXXoO. ",
" .OoXXXXXXXXXXXXXXXXXXXXXXXXXXXXXXXXoO+.",
".+OoXXXXXXXXXXXXXXXXXXXXXXXXXXXXXXXXoO. ",
" .OoXXXXXXXXXXXXXXXXXXXXXXXXXXXXXXXXoO+.",
".+OoXXXXXXXXXXXXXXXXXXXXXXXXXXXXXXXXoO. ",
" .OoXXXXXXXXXXXXXXXXXXXXXXXXXXXXXXXXoO+.",
".+OoXXXXXXXXXXXXXXXXXXXXXXXXXXXXXXXXoO. ",
" .OoXXXXXXXXXXXXXXXXXXXXXXXXXXXXXXXXoO+.",
".+OoXXXXXXXXXXXXXXXXXXXXXXXXXXXXXXXXoO. ",
" .OoXXXXXXXXXXXXXXXXXXXXXXXXXXXXXXXXoO+.",
".+OoXXXXXXXXXXXXXXXXXXXXXXXXXXXXXXXXoO. ",
" .OoXXXXXXXXXXXXXXXXXXXXXXXXXXXXXXXXoO+.",
".+OoXXXXXXXXXXXXXXXXXXXXXXXXXXXXXXXXoO. ",
" .OoXXXXXXXXXXXXXXXXXXXXXXXXXXXXXXXXoO+.",
".+OoXXXXXXXXXXXXXXXXXXXXXXXXXXXXXXXXoO. ",
" .OooooooooooooooooooooooooooooooooooO+.",
".+OOOOOOOOOOOOOOOOOOOOOOOOOOOOOOOOOOOO. ",
" .+.+.+.+.+.+.+.+.+.+.+.+.+.+.+.+.+.+.+.",
". . . . . . . . . . . . . . . . . . . . "
};
