/* XPM */
static char *result[] = {
/* columns rows colors chars-per-pixel */
"40 40 3 1 ",
"  c #004120",
". c #00582B",
"X c #08693F",
/* pixels */
"XXXXXXX                          XXXXXXX",
"XXXXXX ............  ............ XXXXXX",
"XXXXX .............  ............. XXXXX",
"XXXXX ........XXX..  ..XXX........ XXXXX",
"XXXX .........X X..  ..X X......... XXXX",
"XX  ..........XXX..  ..XXX..........  XX",
"X .................  ................. X",
" ..................  .................. ",
" ..................  .................. ",
" ..................  .................. ",
" ..................  .................. ",
" ..................  .................. ",
" ..................  .................. ",
" ..................  .................. ",
" ..................  .................. ",
" ..................  .................. ",
" ..................  .................. ",
" X............  ...  ...  ............X ",
" XX...........  ...  ...  ...........XX ",
" XX.........XX  XXXXXXXX  XX.........XX ",
" XX.........XX  XXXXXXXX  XX.........XX ",
" XX...........  ...  ...  ...........XX ",
" X............  ...  ...  ............X ",
" ..................  .................. ",
" ..................  .................. ",
" ..................  .................. ",
" ..................  .................. ",
" ..................  .................. ",
" ..................  .................. ",
" ..................  .................. ",
" ..................  .................. ",
" ..................  .................. ",
" ..................  .................. ",
"X .................  ................. X",
"XX  ..........XXX..  ..XXX..........  XX",
"XXXX .........X X..  ..X X......... XXXX",
"XXXXX ........XXX..  ..XXX........ XXXXX",
"XXXXX .............  ............. XXXXX",
"XXXXXX ............  ............ XXXXXX",
"XXXXXXX                          XXXXXXX"
};
