/* XPM */
static char *result[] = {
/* columns rows colors chars-per-pixel */
"40 40 9 1 ",
"  c black",
". c #0E0E0E",
"X c gray8",
"o c #1B1B1B",
"O c gray18",
"+ c #373737",
"@ c #490E0E",
"# c #004120",
"$ c #08693F",
/* pixels */
"$$$$$$$##########################$$$$$$$",
"$$$$$$#++++++++++++++++++++++++++#$$$$$$",
"$$$$$#++++++++++++++++++++++++++++#$$$$$",
"$$$$$#++OOOOOOOOOOOOOOOOOOOOOOOO++#$$$$$",
"$$$$#++OOOOOOOOOOOOOOOOOOOOOOOOOO++#$$$$",
"$$##++OOOooooooooooooooooooooooOOO++##$$",
"$#+++OOOooooooooooooooooooooooooOOO+++#$",
"#+++OOOoooXXXXXXXXXXXXXXXXXXXXoooOOO+++#",
"#++OOOoooXXXXXXXXXXXXXXXXXXXXXXoooOOO++#",
"#++OOoooXXXXXXXXXXXXXXXXXXXXXXXXoooOO++#",
"#++OOooXXXXX................XXXXXooOO++#",
"#++OOooXXXX..................XXXXooOO++#",
"#++OOooXXX........    ........XXXooOO++#",
"#++OOooXXX.......      .......XXXooOO++#",
"#++OOooXXX.....          .....XXXooOO++#",
"#++OOooXXX....            ....XXXooOO++#",
"#++OOooXXX....            ....XXXooOO++#",
"#++OOooXXX...              ...XXXooOO++#",
"#++OOooXXX..                ..XXXooOO++#",
"#++OOooXXX..      @  @      ..XXXooOO++#",
"#++OOooXXX..                ..XXXooOO++#",
"#++OOooXXX..                ..XXXooOO++#",
"#++OOooXXX...              ...XXXooOO++#",
"#++OOooXXX....            ....XXXooOO++#",
"#++OOooXXX....            ....XXXooOO++#",
"#++OOooXXX.....          .....XXXooOO++#",
"#++OOooXXX.......      .......XXXooOO++#",
"#++OOooXXX........    ........XXXooOO++#",
"#++OOooXXXX..................XXXXooOO++#",
"#++OOooXXXXX................XXXXXooOO++#",
"#++OOoooXXXXXXXXXXXXXXXXXXXXXXXXoooOO++#",
"#++OOOoooXXXXXXXXXXXXXXXXXXXXXXoooOOO++#",
"#+++OOOoooXXXXXXXXXXXXXXXXXXXXoooOOO+++#",
"$#+++OOOooooooooooooooooooooooooOOO+++#$",
"$$##++OOOooooooooooooooooooooooOOO++##$$",
"$$$$#++OOOOOOOOOOOOOOOOOOOOOOOOOO++#$$$$",
"$$$$$#++OOOOOOOOOOOOOOOOOOOOOOOO++#$$$$$",
"$$$$$#++++++++++++++++++++++++++++#$$$$$",
"$$$$$$#++++++++++++++++++++++++++#$$$$$$",
"$$$$$$$##########################$$$$$$$"
};
